<svg aria-hidden="true" style="position: absolute; width: 0; height: 0; overflow: hidden;" version="1.1" xmlns="http://www.w3.org/2000/svg" xmlns:xlink="http://www.w3.org/1999/xlink">
<defs>
<symbol id="icon-dot" viewBox="0 0 32 32">
<path d="M24 0h-16c-4.418 0-8 3.582-8 8v16c0 4.418 3.582 8 8 8h16c4.418 0 8-3.582 8-8v-16c0-4.418-3.582-8-8-8z"></path>
</symbol>
<symbol id="menu" viewBox="0 0 32 32">
<path d="M5.334 23.027v-1.333h21.333v1.333h-21.333zM5.334 16.667v-1.333h21.333v1.333h-21.333zM5.334 10.307v-1.333h21.333v1.333h-21.333z"></path>
</symbol>
<symbol id="close" viewBox="0 0 32 32">
    <path d="M25.143 8.983l-2.126-2.126-7.016 7.016-7.016-7.016-2.126 2.126 7.016 7.017-7.016 7.016 2.126 2.126 7.017-7.016 7.016 7.016 2.126-2.126-7.016-7.016 7.016-7.017z"></path>
</symbol>
</defs>
</svg>
